<?xml version="1.0" encoding="UTF-8"?>
<svg width="81px" height="20px" viewBox="0 0 81 20" version="1.1" xmlns="http://www.w3.org/2000/svg" xmlns:xlink="http://www.w3.org/1999/xlink">
    <!-- Generator: sketchtool 52.4 (67378) - http://www.bohemiancoding.com/sketch -->
    <title>D7C19832-E17E-42FB-89DF-3D3A79DAA982</title>
    <desc>Created with sketchtool.</desc>
    <g id="Page-1" stroke="none" stroke-width="1" fill="none" fill-rule="evenodd">
        <g id="Pass-change.-start" transform="translate(-490.000000, -30.000000)">
            <g id="e-legion" transform="translate(490.000000, 30.000000)">
                <path d="M76.5027708,5.28518182 C77.8010461,5.28518182 78.8490404,5.67427273 79.647209,6.452 C80.4453775,7.22972727 80.8444618,8.38336364 80.8444618,9.91336364 L80.8444618,15.9029091 L77.8074169,15.9029091 L77.8074169,10.3801818 C77.8074169,9.55063636 77.6258494,8.93109091 77.2622596,8.52290909 C76.8986697,8.11472727 76.3735348,7.91018182 75.6850348,7.91018182 C74.9196303,7.91018182 74.3098551,8.147 73.855709,8.62018182 C73.4011079,9.09336364 73.1740348,9.79654545 73.1740348,10.7301818 L73.1740348,15.9029091 L70.1369899,15.9029091 L70.1369899,5.44063636 L73.037973,5.44063636 L73.037973,6.66609091 C73.4402427,6.22518182 73.9394393,5.88472727 74.5369281,5.64518182 C75.1335067,5.40518182 75.7892427,5.28518182 76.5027708,5.28518182" id="Fill-1" fill="#1C2739"></path>
                <path d="M62.3689079,16.0586818 C61.2658517,16.0586818 60.2761045,15.8282273 59.4001213,15.3677727 C58.5241382,14.9077727 57.8397337,14.2691364 57.3464528,13.4527727 C56.8531719,12.6359545 56.6065315,11.7091364 56.6065315,10.6714091 C56.6065315,9.63459091 56.8531719,8.70777273 57.3464528,7.89095455 C57.8397337,7.07413636 58.5241382,6.43595455 59.4001213,5.9755 C60.2761045,5.5155 61.2658517,5.28504545 62.3689079,5.28504545 C63.4724191,5.28504545 64.4589809,5.5155 65.3281382,5.9755 C66.1977506,6.43595455 66.8789697,7.07413636 67.3722506,7.89095455 C67.8655315,8.70777273 68.1121719,9.63459091 68.1121719,10.6714091 C68.1121719,11.7091364 67.8655315,12.6359545 67.3722506,13.4527727 C66.8789697,14.2691364 66.1977506,14.9077727 65.3281382,15.3677727 C64.4589809,15.8282273 63.4724191,16.0586818 62.3689079,16.0586818 M62.3689079,13.5691364 C63.147964,13.5691364 63.7868629,13.3068636 64.2869697,12.7818636 C64.7861663,12.2568636 65.0359921,11.5536818 65.0359921,10.6714091 C65.0359921,9.79004545 64.7861663,9.08686364 64.2869697,8.56186364 C63.7868629,8.03686364 63.147964,7.77413636 62.3689079,7.77413636 C61.5903067,7.77413636 60.9477674,8.03686364 60.4417449,8.56186364 C59.9352674,9.08686364 59.6827112,9.79004545 59.6827112,10.6714091 C59.6827112,11.5536818 59.9352674,12.2568636 60.4417449,12.7818636 C60.9477674,13.3068636 61.5903067,13.5691364 62.3689079,13.5691364" id="Fill-3" fill="#1C2739"></path>
                <polygon id="Fill-5" fill="#1C2739" points="51.5255562 15.9031818 54.5626011 15.9031818 54.5626011 5.44090909 51.5255562 5.44090909"></polygon>
                <polygon id="Fill-7" fill="#1C2739" points="19.7535337 15.9031818 22.7905787 15.9031818 22.7905787 1.47409091 19.7535337 1.47409091"></polygon>
                <path d="M13.915436,11.7329545 C14.3122449,12.1347727 14.8601326,12.3829545 15.4653573,12.3829545 C16.0710371,12.3829545 16.6189247,12.1347727 17.0152787,11.7329545 C17.4120876,11.3315909 17.657818,10.7765909 17.657818,10.1643182 C17.657818,9.55159091 17.4120876,8.99659091 17.0152787,8.59522727 C16.6189247,8.19386364 16.0710371,7.94522727 15.4653573,7.94522727 C14.8601326,7.94522727 14.3122449,8.19386364 13.915436,8.59522727 C13.518627,8.99659091 13.2733517,9.55159091 13.2733517,10.1643182 C13.2733517,10.7765909 13.518627,11.3315909 13.915436,11.7329545" id="Fill-8" fill="#3BA1DA"></path>
                <path d="M28.7087663,8.16318182 C29.176109,7.77454545 29.7535753,7.57954545 30.4416202,7.57954545 C31.1164685,7.57954545 31.687564,7.77772727 32.1544517,8.17272727 C32.6217944,8.56863636 32.9075697,9.09681818 33.0113225,9.75772727 L27.8523506,9.75772727 C27.9561034,9.08363636 28.2414236,8.55227273 28.7087663,8.16318182 Z M32.8333955,13.1386364 C32.6732157,13.2345455 32.5093955,13.3195455 32.3396596,13.3845455 C31.9178225,13.5468182 31.4340978,13.6272727 30.8893955,13.6272727 C30.0975978,13.6272727 29.435491,13.4395455 28.9035303,13.0636364 C28.3711146,12.6877273 28.033918,12.1759091 27.8910303,11.5272727 L35.8144685,11.5272727 C35.8536034,11.0218182 35.8731708,10.7495455 35.8731708,10.7104545 C35.8731708,9.62136364 35.6360865,8.66545455 35.162373,7.84227273 C34.6886596,7.01909091 34.036564,6.38727273 33.2056315,5.94636364 C32.3751539,5.50545455 31.4472944,5.285 30.4220528,5.285 C29.370873,5.285 28.4202607,5.51545455 27.5702157,5.97590909 C26.7197157,6.43590909 26.0512382,7.07772727 25.5647831,7.90045455 C25.077873,8.72409091 24.834873,9.64772727 24.834873,10.6718182 C24.834873,11.7090909 25.0815135,12.6359091 25.5743393,13.4527273 C26.0676202,14.2695455 26.7684067,14.9077273 27.6771539,15.3681818 C28.5854461,15.8281818 29.6302551,16.0586364 30.8115809,16.0586364 C32.3405697,16.0586364 33.5683112,15.685 34.506182,14.9504545 L32.8333955,13.1386364 Z" id="Fill-9" fill="#1C2739"></path>
                <path d="M4.02975,8.16318182 C4.49663764,7.77454545 5.07455899,7.57954545 5.76260393,7.57954545 C6.43745225,7.57954545 7.00854775,7.77772727 7.47543539,8.17272727 C7.94277809,8.56863636 8.22855337,9.09681818 8.33230618,9.75772727 L3.17287921,9.75772727 C3.27708708,9.08363636 3.5624073,8.55227273 4.02975,8.16318182 Z M8.15437921,13.1386364 C7.99419944,13.2345455 7.83037921,13.3195455 7.66064326,13.3845455 C7.23880618,13.5468182 6.75508146,13.6272727 6.21037921,13.6272727 C5.41858146,13.6272727 4.75647472,13.4395455 4.22451404,13.0636364 C3.69209831,12.6877273 3.35490169,12.1759091 3.21201404,11.5272727 L11.1354522,11.5272727 C11.1745871,11.0218182 11.1941545,10.7495455 11.1941545,10.7104545 C11.1941545,9.62136364 10.9570702,8.66545455 10.4833567,7.84227273 C10.0096433,7.01909091 9.35754775,6.38727273 8.52661517,5.94636364 C7.69613764,5.50545455 6.76827809,5.285 5.74303652,5.285 C4.69185674,5.285 3.74078933,5.51545455 2.89074438,5.97590909 C2.04069944,6.43590909 1.37222191,7.07772727 0.885766854,7.90045455 C0.398856742,8.72409091 0.155401685,9.64772727 0.155401685,10.6718182 C0.155401685,11.7090909 0.402042135,12.6359091 0.895323034,13.4527273 C1.38860393,14.2695455 2.08939045,14.9077273 2.99768258,15.3681818 C3.90642978,15.8281818 4.95123876,16.0586364 6.13210955,16.0586364 C7.66109831,16.0586364 8.88929494,15.6845455 9.82671067,14.9504545 L8.15437921,13.1386364 Z" id="Fill-10" fill="#1C2739"></path>
                <path d="M44.9354781,12.1985909 C44.4226298,12.6717727 43.7641635,12.9081364 42.9591691,12.9081364 C42.1546298,12.9081364 41.4929781,12.6717727 40.973759,12.1985909 C40.4545399,11.7254091 40.1951579,11.1063182 40.1951579,10.3413182 C40.1951579,9.57631818 40.4545399,8.95722727 40.973759,8.4845 C41.4929781,8.01086364 42.1546298,7.7745 42.9591691,7.7745 C43.7641635,7.7745 44.4226298,8.01086364 44.9354781,8.4845 C45.4483264,8.95722727 45.704523,9.57631818 45.704523,10.3413182 C45.704523,11.1063182 45.4483264,11.7254091 44.9354781,12.1985909 Z M45.8210174,5.44086364 L45.8210174,6.78268182 C45.0296747,5.7845 43.8742871,5.28540909 42.3557646,5.28540909 C41.3955961,5.28540909 40.5164275,5.49586364 39.7178039,5.91722727 C38.9196354,6.33859091 38.2871073,6.93177273 37.8197646,7.69677273 C37.3524219,8.46131818 37.1189781,9.34313636 37.1189781,10.3413182 C37.1189781,11.3390455 37.3524219,12.2213182 37.8197646,12.9858636 C38.2871073,13.7508636 38.9196354,14.3440455 39.7178039,14.7649545 C40.5164275,15.1863182 41.3955961,15.3972273 42.3557646,15.3972273 C43.7705343,15.3972273 44.8735904,14.9631364 45.6653882,14.0945 L45.6653882,14.5413182 C45.6653882,15.5013182 45.4160174,16.2172273 44.9159107,16.6904091 C44.416259,17.1635909 43.6408433,17.4004091 42.5896635,17.4004091 C41.9143601,17.4004091 41.2399669,17.2935909 40.5651185,17.0790455 C40.1951579,16.9622273 39.864332,16.8208636 39.5649051,16.6590455 L37.6837028,18.3917727 C38.2807365,18.8585909 39.0333994,19.2154091 39.9421466,19.4617727 C40.8504388,19.7081364 41.8110624,19.8308636 42.8231073,19.8308636 C44.7438994,19.8308636 46.2041747,19.3645 47.203023,18.4308636 C48.2027815,17.4972273 48.7024331,16.0717727 48.7024331,14.1526818 L48.7024331,5.44086364 L45.8210174,5.44086364 Z" id="Fill-11" fill="#1C2739"></path>
                <path d="M51.7119927,3.42395455 C52.0523747,3.76895455 52.5233579,3.98259091 53.0439421,3.98259091 C53.5640713,3.98259091 54.0350545,3.76895455 54.3758916,3.42395455 C54.7171837,3.07895455 54.9274197,2.60213636 54.9274197,2.07577273 C54.9274197,1.54895455 54.7171837,1.07259091 54.3758916,0.727136364 C54.0350545,0.382590909 53.5640713,0.168954545 53.0439421,0.168954545 C52.5233579,0.168954545 52.0523747,0.382590909 51.7119927,0.727136364 C51.3711556,1.07259091 51.1600096,1.54895455 51.1600096,2.07577273 C51.1600096,2.60213636 51.3711556,3.07895455 51.7119927,3.42395455" id="Fill-12" fill="#1C2739"></path>
            </g>
        </g>
    </g>
</svg>